<svg width="20" height="14" viewBox="0 0 20 14" fill="none" xmlns="http://www.w3.org/2000/svg">
<path fill-rule="evenodd" clip-rule="evenodd" d="M9.99998 12.1001C7.27416 12.1001 4.40954 10.4954 2.07156 7.0001C4.40954 3.50482 7.27416 1.9001 9.99998 1.9001C12.7258 1.9001 15.5904 3.50482 17.9284 7.0001C15.5904 10.4954 12.7258 12.1001 9.99998 12.1001ZM19.7632 6.5231C17.1548 2.34965 13.6531 0.100098 9.99998 0.100098C6.34687 0.100098 2.84518 2.34965 0.236777 6.5231C0.0543751 6.81494 0.0543751 7.18526 0.236777 7.4771C2.84518 11.6505 6.34687 13.9001 9.99998 13.9001C13.6531 13.9001 17.1548 11.6506 19.7632 7.4771C19.9456 7.18526 19.9456 6.81494 19.7632 6.5231ZM9.99994 11.0001C12.2091 11.0001 13.9999 9.20924 13.9999 7.0001C13.9999 4.79096 12.2091 3.0001 9.99994 3.0001C7.79081 3.0001 5.99995 4.79096 5.99995 7.0001C5.99995 9.20924 7.79081 11.0001 9.99994 11.0001Z" fill="url(#paint0_linear)"/>
<defs>
<linearGradient id="paint0_linear" x1="9.99997" y1="-5.9374" x2="9.99997" y2="13.9001" gradientUnits="userSpaceOnUse">
<stop stop-color="#FFDC00"/>
<stop offset="1" stop-color="#FFB000"/>
</linearGradient>
</defs>
</svg>
