<svg width="109" height="109" viewBox="0 0 109 109" fill="none" xmlns="http://www.w3.org/2000/svg">
<g clip-path="url(#clip0)">
<path d="M54.5122 109C63.2675 109 72.0227 106.897 79.9953 102.666C80.5089 102.397 80.7045 101.761 80.4355 101.247C80.1665 100.734 79.5306 100.538 79.0171 100.807C63.7566 108.878 45.5125 108.927 30.2031 100.905C29.6895 100.636 29.0536 100.832 28.7846 101.345C28.5156 101.859 28.7113 102.495 29.2248 102.764C37.1241 106.921 45.8304 109 54.5122 109Z" fill="url(#paint0_linear)"/>
<path d="M7.36126 80.7534C7.53245 80.7534 7.70364 80.7045 7.85038 80.6312C8.36395 80.3621 8.5596 79.7263 8.29059 79.2127C0.0489578 63.8299 4.57764e-05 45.4391 8.16831 30.0074C8.43732 29.4938 8.24167 28.858 7.7281 28.589C7.21453 28.3199 6.57868 28.5156 6.30966 29.0292C-2.17653 45.0722 -2.12762 64.1968 6.43194 80.2154C6.62759 80.5578 6.99442 80.7534 7.36126 80.7534Z" fill="url(#paint1_linear)"/>
<path d="M79.7018 8.41286C80.0686 8.41286 80.4355 8.21721 80.6311 7.85037C80.9001 7.3368 80.7045 6.70094 80.1909 6.43193C64.2457 -2.07873 45.1701 -2.15209 29.1759 6.26074C28.6623 6.52975 28.4667 7.16561 28.7357 7.67918C29.0047 8.19276 29.6406 8.3884 30.1541 8.11939C45.5614 0.0244825 63.9033 0.09785 79.2371 8.31503C79.3594 8.3884 79.5306 8.41286 79.7018 8.41286Z" fill="url(#paint2_linear)"/>
<path d="M101.737 80.5823C102.103 80.5823 102.47 80.3866 102.666 80.0198C111.079 64.1234 111.128 45.1456 102.788 29.2248C102.519 28.7113 101.883 28.5156 101.37 28.7846C100.856 29.0537 100.661 29.6895 100.93 30.2031C108.951 45.488 108.902 63.7566 100.807 79.0415C100.538 79.5551 100.734 80.191 101.247 80.46C101.394 80.5334 101.565 80.5823 101.737 80.5823Z" fill="url(#paint3_linear)"/>
<path d="M54.4144 74.5416C65.4685 74.5416 74.4438 65.5663 74.4438 54.5122C74.4438 43.4582 65.4685 34.4828 54.4144 34.4828C43.3603 34.4828 34.385 43.4582 34.385 54.5122C34.3606 65.5419 43.3603 74.5416 54.4144 74.5416ZM54.4144 34.972C65.1995 34.972 73.9547 43.7272 73.9547 54.5122C73.9547 65.2973 65.1995 74.0525 54.4144 74.0525C43.6294 74.0525 34.8741 65.2973 34.8741 54.5122C34.8741 43.7272 43.6294 34.972 54.4144 34.972Z" fill="url(#paint4_linear)"/>
<path d="M54.4144 89.5576C73.7346 89.5576 89.4597 73.8325 89.4597 54.5123C89.4597 35.1921 73.7346 19.467 54.4144 19.467C35.0943 19.467 19.3691 35.1921 19.3691 54.5123C19.3691 73.8325 35.0943 89.5576 54.4144 89.5576ZM54.4144 19.9561C73.4411 19.9561 88.9462 35.4611 88.9462 54.5123C88.9462 73.5635 73.4411 89.0685 54.39 89.0685C35.3388 89.0685 19.8338 73.5635 19.8338 54.5123C19.8582 35.4611 35.3633 19.9561 54.4144 19.9561Z" fill="url(#paint5_linear)"/>
<path d="M15.7985 16.0431C16.2143 15.6274 16.8746 15.6274 17.2903 16.0431L49.3765 48.1293C48.8384 48.5695 48.3493 49.0586 47.9091 49.6211L15.7985 17.5349C15.4072 17.1192 15.4072 16.4589 15.7985 16.0431Z" fill="url(#paint6_linear)"/>
<path d="M60.7974 59.5502L92.7368 91.4896C93.1526 91.9053 93.1526 92.5656 92.7368 92.9569C92.5412 93.1526 92.2721 93.2748 92.0031 93.2748C91.7341 93.2748 91.4651 93.177 91.2694 92.9569L59.3056 60.9931C59.8436 60.5773 60.3572 60.0882 60.7974 59.5502Z" fill="url(#paint7_linear)"/>
<path d="M54.3655 81.7073V81.2181C52.3601 81.2181 50.3547 80.998 48.4227 80.5578L48.3249 81.047C50.3058 81.4627 52.3356 81.7073 54.3655 81.7073ZM60.4305 81.047C62.4115 80.6067 64.3435 79.922 66.1777 79.0416L65.9576 78.6014C64.1478 79.4573 62.2647 80.1176 60.3083 80.5578L60.4305 81.047ZM42.5777 79.0171L42.7978 78.5769C41.0126 77.7209 39.3006 76.6449 37.7355 75.3976L37.4175 75.7889C39.0316 77.0362 40.7435 78.1367 42.5777 79.0171ZM71.3379 75.7889C72.9275 74.5172 74.3704 73.0743 75.6421 71.4847L75.2508 71.1668C74.0036 72.7319 72.5851 74.1504 71.0199 75.3976L71.3379 75.7889ZM33.1378 71.4602L33.529 71.1423C32.2818 69.5771 31.2057 67.8897 30.3498 66.0799L29.9096 66.3C30.7655 68.1342 31.866 69.8706 33.1378 71.4602ZM78.8948 66.3489C79.7752 64.5148 80.4599 62.5827 80.9246 60.6018L80.4355 60.4795C79.9953 62.4116 79.3105 64.3191 78.4545 66.1288L78.8948 66.3489ZM27.8797 60.5529L28.3689 60.4551C27.9286 58.5231 27.7085 56.5177 27.7085 54.5123V54.39H27.2194V54.5123C27.195 56.5421 27.4395 58.5964 27.8797 60.5529ZM81.0958 54.5612H81.5849V54.5123C81.5849 52.4825 81.3648 50.4771 80.9246 48.5206L80.4355 48.6184C80.8757 50.526 81.0958 52.5069 81.0958 54.5123V54.5612ZM28.3933 48.4717C28.8335 46.5397 29.5183 44.6321 30.3987 42.8468L29.9585 42.6267C29.0781 44.4609 28.3933 46.3929 27.9286 48.3739L28.3933 48.4717ZM78.5035 42.9691L78.9437 42.749C78.0632 40.9148 76.9872 39.1784 75.7155 37.5888L75.3242 37.9067C76.5714 39.4719 77.623 41.1838 78.5035 42.9691ZM33.578 37.7845C34.8252 36.2193 36.2681 34.8008 37.8088 33.578L37.4909 33.1867C35.9013 34.4584 34.4339 35.9013 33.1622 37.4665L33.578 37.7845ZM71.1178 33.6759L71.4357 33.2846C69.8461 32.0129 68.1097 30.9123 66.3 30.0319L66.0799 30.4721C67.8407 31.3525 69.5526 32.4286 71.1178 33.6759ZM42.8957 30.3988C44.7054 29.5428 46.5885 28.8825 48.545 28.4423L48.4471 27.9532C46.4662 28.3934 44.5342 29.0781 42.7 29.9341L42.8957 30.3988ZM60.4305 28.4912L60.5528 28.0021C58.5719 27.5374 56.5421 27.3173 54.5122 27.3173V27.8064C56.4931 27.8064 58.4985 28.051 60.4305 28.4912Z" fill="url(#paint8_linear)"/>
<path d="M15.7986 91.4897L47.9092 59.4035C48.3249 59.966 48.814 60.4551 49.3765 60.8953L17.2904 92.9815C17.0947 93.1771 16.8257 93.2994 16.5567 93.2994C16.2877 93.2994 16.0187 93.2016 15.823 92.9815C15.4073 92.5657 15.4073 91.9054 15.7986 91.4897Z" fill="url(#paint9_linear)"/>
<path d="M59.2811 48.007L91.2695 16.0431C91.6852 15.6274 92.3455 15.6274 92.7613 16.0431C93.177 16.4589 93.177 17.1192 92.7613 17.5105L60.8218 49.4499C60.3572 48.9119 59.8436 48.4228 59.2811 48.007Z" fill="url(#paint10_linear)"/>
<path d="M54.4145 57.3492C52.8477 57.3492 51.5776 56.0791 51.5776 54.5123C51.5776 52.9455 52.8477 51.6754 54.4145 51.6754C55.9813 51.6754 57.2514 52.9455 57.2514 54.5123C57.2514 56.0791 55.9813 57.3492 54.4145 57.3492Z" fill="url(#paint11_linear)"/>
</g>
<defs>
<linearGradient id="paint0_linear" x1="54.6101" y1="97.0495" x2="54.6101" y2="109" gradientUnits="userSpaceOnUse">
<stop stop-color="#FFDC00"/>
<stop offset="1" stop-color="#FFB000"/>
</linearGradient>
<linearGradient id="paint1_linear" x1="4.19486" y1="5.59358" x2="4.19486" y2="80.7534" gradientUnits="userSpaceOnUse">
<stop stop-color="#FFDC00"/>
<stop offset="1" stop-color="#FFB000"/>
</linearGradient>
<linearGradient id="paint2_linear" x1="54.6834" y1="-3.68106" x2="54.6834" y2="8.41286" gradientUnits="userSpaceOnUse">
<stop stop-color="#FFDC00"/>
<stop offset="1" stop-color="#FFB000"/>
</linearGradient>
<linearGradient id="paint3_linear" x1="104.848" y1="5.94976" x2="104.848" y2="80.5823" gradientUnits="userSpaceOnUse">
<stop stop-color="#FFDC00"/>
<stop offset="1" stop-color="#FFB000"/>
</linearGradient>
<linearGradient id="paint4_linear" x1="54.4144" y1="16.9571" x2="54.4144" y2="74.5416" gradientUnits="userSpaceOnUse">
<stop stop-color="#FFDC00"/>
<stop offset="1" stop-color="#FFB000"/>
</linearGradient>
<linearGradient id="paint5_linear" x1="54.4144" y1="-11.1977" x2="54.4144" y2="89.5576" gradientUnits="userSpaceOnUse">
<stop stop-color="#FFDC00"/>
<stop offset="1" stop-color="#FFB000"/>
</linearGradient>
<linearGradient id="paint6_linear" x1="32.4408" y1="0.904546" x2="32.4408" y2="49.6211" gradientUnits="userSpaceOnUse">
<stop stop-color="#FFDC00"/>
<stop offset="1" stop-color="#FFB000"/>
</linearGradient>
<linearGradient id="paint7_linear" x1="76.1771" y1="44.7956" x2="76.1771" y2="93.2748" gradientUnits="userSpaceOnUse">
<stop stop-color="#FFDC00"/>
<stop offset="1" stop-color="#FFB000"/>
</linearGradient>
<linearGradient id="paint8_linear" x1="54.4013" y1="3.52172" x2="54.4013" y2="81.7073" gradientUnits="userSpaceOnUse">
<stop stop-color="#FFDC00"/>
<stop offset="1" stop-color="#FFB000"/>
</linearGradient>
<linearGradient id="paint9_linear" x1="32.4423" y1="44.574" x2="32.4423" y2="93.2994" gradientUnits="userSpaceOnUse">
<stop stop-color="#FFDC00"/>
<stop offset="1" stop-color="#FFB000"/>
</linearGradient>
<linearGradient id="paint10_linear" x1="76.1771" y1="0.979441" x2="76.1771" y2="49.4499" gradientUnits="userSpaceOnUse">
<stop stop-color="#FFDC00"/>
<stop offset="1" stop-color="#FFB000"/>
</linearGradient>
<linearGradient id="paint11_linear" x1="54.4145" y1="49.1931" x2="54.4145" y2="57.3492" gradientUnits="userSpaceOnUse">
<stop stop-color="#FFDC00"/>
<stop offset="1" stop-color="#FFB000"/>
</linearGradient>
<clipPath id="clip0">
<rect width="109" height="109" fill="white" transform="matrix(-1 0 0 1 109 0)"/>
</clipPath>
</defs>
</svg>
