<svg width="12" height="22" viewBox="0 0 12 22" fill="none" xmlns="http://www.w3.org/2000/svg">
<path d="M11.563 0.00457747L8.7857 0C5.66554 0 3.64916 2.12509 3.64916 5.41423V7.91055H0.856742C0.615444 7.91055 0.420044 8.1115 0.420044 8.35937V11.9763C0.420044 12.2241 0.615667 12.4249 0.856742 12.4249H3.64916V21.5514C3.64916 21.7993 3.84455 22 4.08585 22H7.72916C7.97046 22 8.16586 21.799 8.16586 21.5514V12.4249H11.4308C11.6721 12.4249 11.8675 12.2241 11.8675 11.9763L11.8689 8.35937C11.8689 8.24036 11.8228 8.12638 11.741 8.04215C11.6592 7.95793 11.5478 7.91055 11.432 7.91055H8.16586V5.79439C8.16586 4.77727 8.40181 4.26094 9.69162 4.26094L11.5625 4.26025C11.8036 4.26025 11.999 4.0593 11.999 3.81166V0.453169C11.999 0.205757 11.8038 0.00503522 11.563 0.00457747Z" fill="url(#paint0_linear)"/>
<defs>
<linearGradient id="paint0_linear" x1="6.20952" y1="-9.625" x2="6.20952" y2="22" gradientUnits="userSpaceOnUse">
<stop stop-color="#FFDC00"/>
<stop offset="1" stop-color="#FFB000"/>
</linearGradient>
</defs>
</svg>
